<?xml version="1.0" encoding="UTF-8"?>
<svg xmlns="http://www.w3.org/2000/svg" xmlns:xlink="http://www.w3.org/1999/xlink" width="80pt" height="120pt" viewBox="0 0 80 120" version="1.1">
<defs>
<clipPath id="clip1">
  <path d="M 11.25 0 L 80 0 L 80 120 L 0 120 L 0 12 Z M 11.25 0 "/>
</clipPath>
</defs>
<g id="surface1">
<g clip-path="url(#clip1)" clip-rule="nonzero">
<path style="fill-rule:nonzero;fill:rgb(94.901961%,94.901961%,94.901961%);fill-opacity:1;stroke-width:4;stroke-linecap:butt;stroke-linejoin:miter;stroke:rgb(70.196078%,70.196078%,70.196078%);stroke-opacity:1;stroke-miterlimit:4;" d="M 16 2 L 304 2 C 311.734375 2 318 8.265625 318 16 L 318 464 C 318 471.734375 311.734375 478 304 478 L 16 478 C 8.265625 478 2 471.734375 2 464 L 2 16 C 2 8.265625 8.265625 2 16 2 Z M 16 2 " transform="matrix(0.25,0,0,0.25,0,0)"/>
</g>
<path style="fill-rule:nonzero;fill:rgb(0%,0%,0%);fill-opacity:1;stroke-width:4;stroke-linecap:butt;stroke-linejoin:miter;stroke:rgb(70.196078%,70.196078%,70.196078%);stroke-opacity:1;stroke-miterlimit:4;" d="M 2 48 L 45 2 " transform="matrix(0.25,0,0,0.25,0,0)"/>
</g>
</svg>
